<svg xmlns="http://www.w3.org/2000/svg" viewBox="0 0 919.28 149.96" xmlns:xlink="http://www.w3.org/1999/xlink"><defs><style>.cls-1{fill:#e72635;}.cls-2{fill:url(#a);}.cls-3{fill:#009aff;}.cls-4{fill:url(#c);}.cls-5{fill:url(#b);}</style><linearGradient id="a" x1="127.42" x2="189.59" y1="55.39" y2="117.57" gradientUnits="userSpaceOnUse"><stop stop-color="#fff" stop-opacity="0" offset="0"/><stop stop-color="#ededed" stop-opacity=".02" offset=".03"/><stop stop-opacity=".3" offset="1"/></linearGradient><linearGradient id="c" x1="88.25" x2="150.43" y1="16.22" y2="78.4" xlink:href="#a"/><linearGradient id="b" x1="139.91" x2="143.33" y1="82.08" y2="85.5" xlink:href="#a"/></defs><g data-name="Calque 1"><path d="M48.82 101.52a4.78 4.78 0 0 0-1.73.36q-.92.36-2.19.81a22.09 22.09 0 0 1-3 .81 21 21 0 0 1-4.17.36q-4.17 0-6.1-1.88T29.7 96a29.32 29.32 0 0 1 .3-3.38q.25-2.08.56-3.61l5.87-29.26c-.59-9.68-18.62-10-23.55-9.85l-8.2 40.74q-.3 1.32-.56 3t-.51 3.31q-.25 1.63-.36 3.1t-.1 2.59A30.09 30.09 0 0 0 4.73 113a16.84 16.84 0 0 0 4.73 7 19.52 19.52 0 0 0 7.78 4A40.69 40.69 0 0 0 28 125.32a45.87 45.87 0 0 0 5.7-.36A47 47 0 0 0 39 124a25.83 25.83 0 0 0 4.32-1.42 9.14 9.14 0 0 0 2.75-1.73A9 9 0 0 0 47.8 118a35 35 0 0 0 1.47-4.17 41.78 41.78 0 0 0 1.07-4.73 26.91 26.91 0 0 0 .41-4.37 4.29 4.29 0 0 0-.56-2.49 1.66 1.66 0 0 0-1.37-.72zM65.19 26.77a2.42 2.42 0 0 0-2.34-1.12H43.22l4.07-20.24A2.58 2.58 0 0 0 47 3.58a3.51 3.51 0 0 0-1.78-1.37 13.69 13.69 0 0 0-3.76-.81 60.64 60.64 0 0 0-6.1-.25q-3.76 0-6.26.25a17.86 17.86 0 0 0-4.07.81 5.84 5.84 0 0 0-2.34 1.37 3.7 3.7 0 0 0-1 1.83L17.7 25.65H6.81a3.79 3.79 0 0 0-3.15 1.93 16.68 16.68 0 0 0-2.14 4.63A33.68 33.68 0 0 0 .36 37.7 37.49 37.49 0 0 0 0 42.23a6.2 6.2 0 0 0 .61 3.31 2.2 2.2 0 0 0 1.93.86h56.35a2.92 2.92 0 0 0 2.08-1A9.75 9.75 0 0 0 62.7 43a23.06 23.06 0 0 0 1.37-3.31A29.18 29.18 0 0 0 65 36q.36-1.83.56-3.41A21 21 0 0 0 65.8 30a6.94 6.94 0 0 0-.61-3.23zM653.48 39a21.7 21.7 0 0 0-4.27-8.24 20.41 20.41 0 0 0-7.78-5.49c-6.06-2.6-31.49-5-49.4 9a18.81 18.81 0 0 0-3.49-5 19.44 19.44 0 0 0-7.12-4.37c-5.26-2-27.47-4.51-43 9.35 0 0-1.14-3.67-2.6-5-5.07-4.8-14.12-3.49-15-3.18a4.52 4.52 0 0 0-2 1.22 3.81 3.81 0 0 0-.92 1.71l-18.2 90.82a2.6 2.6 0 0 0 .2 1.78 3.14 3.14 0 0 0 1.78 1.27 16.13 16.13 0 0 0 3.76.76 60.33 60.33 0 0 0 6.15.25q3.66 0 6.2-.25a20.39 20.39 0 0 0 4.12-.76 5.8 5.8 0 0 0 2.34-1.27 3.42 3.42 0 0 0 1-1.78l8.24-41.09a48.18 48.18 0 0 1 4.42-12.87A50.62 50.62 0 0 1 545 55.3a36.8 36.8 0 0 1 8.39-7.17 16.33 16.33 0 0 1 8.44-2.64q4.48 0 6.31 2.9a13.58 13.58 0 0 1 1.86 7.36 47.61 47.61 0 0 1-.25 4.83 32 32 0 0 1-.86 4.83l-10.78 54.41a2.43 2.43 0 0 0 .25 1.78 3.41 3.41 0 0 0 1.78 1.27 15.24 15.24 0 0 0 3.71.76 59.07 59.07 0 0 0 6.05.25q3.76 0 6.25-.25a21.37 21.37 0 0 0 4.12-.76 5.82 5.82 0 0 0 2.39-1.27 3.42 3.42 0 0 0 1-1.78l8.24-41.09a48.15 48.15 0 0 1 4.42-12.87 50.63 50.63 0 0 1 7.12-10.58 36.81 36.81 0 0 1 8.39-7.17 16.33 16.33 0 0 1 8.44-2.64q4.58 0 6.36 2.95a14.83 14.83 0 0 1 1.78 7.73 35 35 0 0 1-.31 4.63q-.3 2.29-.71 4.63l-10.88 54.41a2.14 2.14 0 0 0 .15 1.78 3.41 3.41 0 0 0 1.78 1.27 15.39 15.39 0 0 0 3.76.76 60.64 60.64 0 0 0 6.1.25q3.76 0 6.26-.25a21.37 21.37 0 0 0 4.12-.76 5.81 5.81 0 0 0 2.39-1.27 3.42 3.42 0 0 0 1-1.78l11.19-56a74.16 74.16 0 0 0 1.22-7.37 63.94 63.94 0 0 0 .41-7.17A37.85 37.85 0 0 0 653.48 39zM306.84 25.75a6.83 6.83 0 0 0-1.68-1 13.83 13.83 0 0 0-2.44-.76q-1.37-.3-2.95-.51s-14.63-1.85-30.67 10.64l1-5.14a2.82 2.82 0 0 0-.15-1.78 2.61 2.61 0 0 0-1.46-1.2 12.78 12.78 0 0 0-3.1-.71 41.92 41.92 0 0 0-5.14-.25 46.22 46.22 0 0 0-5.24.25 18.19 18.19 0 0 0-3.56.71 4.93 4.93 0 0 0-2.08 1.22 3.59 3.59 0 0 0-.92 1.78l-18.1 90.82a2.6 2.6 0 0 0 .2 1.78 3.15 3.15 0 0 0 1.78 1.27 16.13 16.13 0 0 0 3.76.76 60.34 60.34 0 0 0 6.15.25q3.66 0 6.2-.25a20.39 20.39 0 0 0 4.12-.76 5.79 5.79 0 0 0 2.34-1.27 3.42 3.42 0 0 0 1-1.78L264 79c0-.22.12-.42.17-.64 1.15-4.28 11.15-30.87 36.06-29h.19a2.64 2.64 0 0 0 2.1-1.36 15.41 15.41 0 0 0 1.73-3.66q.76-2.24 1.37-4.83t1-5q.41-2.44.61-4.27t.2-2.54a2.64 2.64 0 0 0-.59-1.95zM501.85 27.23a2.43 2.43 0 0 0-1.57-1.23c-8-2.05-12.65-.46-16.05 1.5-3.19 1.84-5.42 6.34-5.42 6.34a42 42 0 0 0-18.42-9.47l-1.1-.27a35.87 35.87 0 0 0-5.4-.78l.1.1c-.72 0-1.43-.12-2.18-.12a39.37 39.37 0 0 0-16.22 3.2 43.59 43.59 0 0 0-12.71 8.59 55.26 55.26 0 0 0-9.51 12.36A82.77 82.77 0 0 0 406.86 62a93.68 93.68 0 0 0-3.76 15.1 88.39 88.39 0 0 0-1.22 14 60.09 60.09 0 0 0 1.37 13 31.85 31.85 0 0 0 4.63 11 23.4 23.4 0 0 0 8.64 7.68q5.39 2.85 13.53 2.85a34.55 34.55 0 0 0 7.38-.89l-.09.12a78.59 78.59 0 0 0 25.46-11.22l-1.23 6.3a3.09 3.09 0 0 0 .15 1.88 2.64 2.64 0 0 0 1.58 1.22 13.16 13.16 0 0 0 3.2.66q2 .2 5.14.2a31.69 31.69 0 0 0 9-.92q2.8-.92 3.2-3.05L502.06 29a2.6 2.6 0 0 0-.21-1.77zm-71.5 72.06a14.59 14.59 0 0 1-1.68-4.88 35.24 35.24 0 0 1-.46-5.8 71.94 71.94 0 0 1 2.7-18.87 62.38 62.38 0 0 1 3.46-9.31 38.19 38.19 0 0 1 4.83-7.88 22.27 22.27 0 0 1 6.31-5.44 15.51 15.51 0 0 1 7.83-2 18 18 0 0 1 10 2.8 27 27 0 0 1 7.88 8.39L468.39 70a52.13 52.13 0 0 1-4.53 13.17 51 51 0 0 1-7.17 10.78 34.92 34.92 0 0 1-8.75 7.32 18.28 18.28 0 0 1-9.14 2.73 9.64 9.64 0 0 1-5.19-1.27 9.51 9.51 0 0 1-3.25-3.45zM902.29 101.52a4.78 4.78 0 0 0-1.73.36q-.92.36-2.19.81a22.06 22.06 0 0 1-3 .81 21 21 0 0 1-4.17.36q-4.17 0-6.1-1.88T883.17 96a29.31 29.31 0 0 1 .25-3.41q.25-2.08.56-3.61l5.87-29.27c-.59-9.68-18.62-10-23.55-9.85l-8.15 40.74q-.31 1.32-.56 3t-.51 3.31q-.25 1.63-.36 3.1t-.1 2.59a30.1 30.1 0 0 0 1.58 10.4 16.84 16.84 0 0 0 4.73 7 19.52 19.52 0 0 0 7.78 4 40.69 40.69 0 0 0 10.73 1.27 45.88 45.88 0 0 0 5.7-.36 47 47 0 0 0 5.34-1 25.82 25.82 0 0 0 4.32-1.42 9.14 9.14 0 0 0 2.75-1.73 9 9 0 0 0 1.73-2.8 35 35 0 0 0 1.47-4.17 41.78 41.78 0 0 0 1.07-4.73 26.86 26.86 0 0 0 .41-4.37 4.3 4.3 0 0 0-.56-2.49 1.66 1.66 0 0 0-1.38-.68zM918.67 26.77a2.42 2.42 0 0 0-2.34-1.12H896.7l4.07-20.24a2.58 2.58 0 0 0-.25-1.83 3.5 3.5 0 0 0-1.78-1.37 13.69 13.69 0 0 0-3.74-.82 60.64 60.64 0 0 0-6.1-.25q-3.76 0-6.26.25a17.87 17.87 0 0 0-4.07.81 5.84 5.84 0 0 0-2.34 1.37 3.71 3.71 0 0 0-1 1.83l-4.07 20.24h-10.87a3.79 3.79 0 0 0-3.15 1.93 16.64 16.64 0 0 0-2.14 4.64 33.68 33.68 0 0 0-1.17 5.49 37.55 37.55 0 0 0-.36 4.53 6.21 6.21 0 0 0 .61 3.31 2.2 2.2 0 0 0 1.93.86h56.34a2.91 2.91 0 0 0 2.08-1 9.74 9.74 0 0 0 1.74-2.4 23.06 23.06 0 0 0 1.37-3.31 29.06 29.06 0 0 0 1-3.66q.36-1.83.56-3.41a21 21 0 0 0 .2-2.59 6.94 6.94 0 0 0-.63-3.26zM395.89 39.33a21.79 21.79 0 0 0-4.32-8.33 20.82 20.82 0 0 0-7.83-5.64 37.73 37.73 0 0 0-12.24-2.06c-6.31.08-20.65 1.42-32.85 11l-.3.25s-.74-3.76-2.52-5.43c-5.16-4.84-14.12-3.49-15-3.18a4.52 4.52 0 0 0-2 1.22 3.81 3.81 0 0 0-.86 1.78l-18.2 90.82a2.6 2.6 0 0 0 .2 1.78 3.14 3.14 0 0 0 1.78 1.27 16.13 16.13 0 0 0 3.76.76 60.34 60.34 0 0 0 6.15.25q3.66 0 6.2-.25a20.39 20.39 0 0 0 4.12-.76 5.79 5.79 0 0 0 2.34-1.27 3.42 3.42 0 0 0 1-1.78l8.24-41.09a47.1 47.1 0 0 1 4.48-12.87 52.11 52.11 0 0 1 7.17-10.58 35.35 35.35 0 0 1 8.54-7.17 17.26 17.26 0 0 1 8.7-2.64q4.58 0 6.51 2.95a13.48 13.48 0 0 1 1.81 7.64q0 1.93-.25 4.48a47.69 47.69 0 0 1-.76 5l-11 54.41a2.42 2.42 0 0 0 .25 1.78 3.41 3.41 0 0 0 1.78 1.27 15.25 15.25 0 0 0 3.71.76 60.34 60.34 0 0 0 6.15.25q3.76 0 6.25-.25a20.27 20.27 0 0 0 4.07-.76 5.79 5.79 0 0 0 2.34-1.27 3.42 3.42 0 0 0 1-1.78l11.29-56q.71-3.76 1.17-7.32a55.83 55.83 0 0 0 .46-7.12 37 37 0 0 0-1.34-10.12zM845.86 39.33a21.79 21.79 0 0 0-4.32-8.33 20.82 20.82 0 0 0-7.83-5.64 37.73 37.73 0 0 0-12.24-2.06c-6.31.08-20.65 1.42-32.85 11l-.3.25s-.74-3.76-2.52-5.43c-5.16-4.84-14.12-3.49-15-3.18a4.52 4.52 0 0 0-2 1.22 3.81 3.81 0 0 0-.86 1.78l-18.2 90.82a2.6 2.6 0 0 0 .2 1.78 3.14 3.14 0 0 0 1.78 1.27 16.13 16.13 0 0 0 3.76.76 60.34 60.34 0 0 0 6.15.25q3.66 0 6.2-.25a20.39 20.39 0 0 0 4.12-.76 5.79 5.79 0 0 0 2.34-1.27 3.42 3.42 0 0 0 1-1.78l8.24-41.09a47.1 47.1 0 0 1 4.48-12.87 52.11 52.11 0 0 1 7.17-10.58 35.35 35.35 0 0 1 8.54-7.17 17.26 17.26 0 0 1 8.7-2.64q4.58 0 6.51 2.95a13.48 13.48 0 0 1 1.81 7.64q0 1.93-.25 4.48a47.69 47.69 0 0 1-.76 5l-11 54.41a2.42 2.42 0 0 0 .25 1.78 3.41 3.41 0 0 0 1.78 1.27 15.25 15.25 0 0 0 3.71.76 60.34 60.34 0 0 0 6.15.25q3.76 0 6.25-.25a20.27 20.27 0 0 0 4.07-.76 5.79 5.79 0 0 0 2.34-1.27 3.42 3.42 0 0 0 1-1.78l11.29-56q.71-3.76 1.17-7.32a55.83 55.83 0 0 0 .46-7.12 37 37 0 0 0-1.34-10.12zM749.62 39.53a23.3 23.3 0 0 0-6.36-8.24 32.4 32.4 0 0 0-10.93-5.8 51.29 51.29 0 0 0-15.92-2.19 53.52 53.52 0 0 0-19 3.15 51.59 51.59 0 0 0-14.7 8.39A52.86 52.86 0 0 0 671.87 47a75.55 75.55 0 0 0-7.32 14.49 80.42 80.42 0 0 0-4.12 15.36 90.79 90.79 0 0 0-1.27 14.59 43.28 43.28 0 0 0 2.44 15.31 25.58 25.58 0 0 0 7.32 10.63 31.47 31.47 0 0 0 12.15 6.2 63.59 63.59 0 0 0 17 2 100.45 100.45 0 0 0 11.63-.58 101.67 101.67 0 0 0 10.3-1.71 59.12 59.12 0 0 0 7.8-2.29 13.07 13.07 0 0 0 4.48-2.44 8.76 8.76 0 0 0 2-2.95 25.56 25.56 0 0 0 1.42-4.12 39.39 39.39 0 0 0 .86-4.42 29.88 29.88 0 0 0 .3-4 3.9 3.9 0 0 0-.51-2.24 2 2 0 0 0-1.73-.71 12.94 12.94 0 0 0-3.86 1q-2.64 1-6.66 2.14a93.11 93.11 0 0 1-9.36 2.14 68.07 68.07 0 0 1-12.05 1q-9.46 0-13.73-4.17t-4.27-12.41q0-1.93.2-4.22t.61-4.63c.06-.56 2.2-11.94 3.66-16.37a46.42 46.42 0 0 1 3.51-9 30.1 30.1 0 0 1 5.24-7.32 23.49 23.49 0 0 1 7.09-4.93 21.72 21.72 0 0 1 9.1-1.83q6.1 0 9.31 2.7a8.48 8.48 0 0 1 3.2 6.76 10.05 10.05 0 0 1-1.53 5.34 12.6 12.6 0 0 1-4.88 4.32 31.08 31.08 0 0 1-8.85 2.9c-2.48.48-9 1-9.15 1-8.35.69-10.71 6-13.37 16.46h6a127 127 0 0 0 25.58-2.24 56.35 56.35 0 0 0 17.7-6.46 28.17 28.17 0 0 0 10.29-10.09A26.3 26.3 0 0 0 751.7 49a22.93 22.93 0 0 0-2.08-9.47z"/><path d="M205.76 55.39a55.39 55.39 0 1 0 0 78.34 55.39 55.39 0 0 0 0-78.34zm-45.39 71.15q-1.54-.3-3.05-.75t-3-1a32.32 32.32 0 0 1-5.67-3c-.51-.34-1-.69-1.5-1.06q-1.18-.88-2.3-1.88c-.45-.4-.88-.81-1.31-1.24a32.64 32.64 0 0 1-5-6.48q-.41-.69-.78-1.4a32.59 32.59 0 0 1 44-44q.71.37 1.4.78a32.64 32.64 0 0 1 6.48 5c.43.43.84.87 1.24 1.31q1 1.11 1.88 2.3c.37.49.72 1 1.06 1.5a32.34 32.34 0 0 1 3 5.67q.6 1.47 1 3t.75 3.05a32.58 32.58 0 0 1-38.2 38.2z" class="cls-1"/><path d="M189.63 55.39a44 44 0 1 0-1.22 63.36A32.58 32.58 0 1 1 166.84 62a32.57 32.57 0 0 1 24 54.39 44 44 0 0 0-1.21-61zM134 94.78z" class="cls-2"/><path d="M112.18 84.17a32.44 32.44 0 0 1-6.58-4.59q-.62-.56-1.22-1.16t-1.16-1.22a32.58 32.58 0 0 1 46-46q.62.56 1.22 1.16t1.16 1.22a32.39 32.39 0 0 1 7 12.54q.45 1.51.75 3.05a32.58 32.58 0 0 1-24.46 37.93 32.65 32.65 0 0 0 2.86 22.61l.05.1a55.45 55.45 0 1 0-24.71-.91 55.67 55.67 0 0 1-.91-24.73z" class="cls-3"/><path d="M150.46 16.22a44 44 0 1 0-39.1 74.34 55.57 55.57 0 0 1 .82-6.38 32.59 32.59 0 0 1-17.33-28.57v.1a32.55 32.55 0 0 1 32.9-32.89h-.06a32.57 32.57 0 0 1 23.92 54.38 44 44 0 0 0-1.15-60.98z" class="cls-4"/><path d="M134.59 88.58a43.77 43.77 0 0 0 14.65-9 32.38 32.38 0 0 1-14.35 7.51c-.12.5-.21 1-.3 1.49z" class="cls-5"/></g></svg>